<?xml version="1.0" encoding="UTF-8" standalone="no"?>
<!DOCTYPE svg PUBLIC "-//W3C//DTD SVG 1.1//EN"
 "http://www.w3.org/Graphics/SVG/1.1/DTD/svg11.dtd">
<!-- Generated by graphviz version 2.43.0 (0)
 -->
<!-- Title: JiTArchitectureComparisonSimple Pages: 1 -->
<svg width="2778pt" height="331pt"
 viewBox="0.00 0.00 2778.40 330.90" xmlns="http://www.w3.org/2000/svg" xmlns:xlink="http://www.w3.org/1999/xlink">
<g id="graph0" class="graph" transform="scale(1 1) rotate(0) translate(25.2 305.7)">
<title>JiTArchitectureComparisonSimple</title>
<polygon fill="white" stroke="transparent" points="-25.2,25.2 -25.2,-305.7 2753.2,-305.7 2753.2,25.2 -25.2,25.2"/>
<text text-anchor="middle" x="1364" y="-258.9" font-family="Helvetica,sans-Serif" font-size="22.00">JiT Architecture Change: Shared Trunk to Dual Stream</text>
<g id="clust1" class="cluster">
<title>cluster_before</title>
<path fill="#fff5d9" stroke="#d7b55a" stroke-width="1.6" d="M20,-76.5C20,-76.5 1084,-76.5 1084,-76.5 1090,-76.5 1096,-82.5 1096,-88.5 1096,-88.5 1096,-160.5 1096,-160.5 1096,-166.5 1090,-172.5 1084,-172.5 1084,-172.5 20,-172.5 20,-172.5 14,-172.5 8,-166.5 8,-160.5 8,-160.5 8,-88.5 8,-88.5 8,-82.5 14,-76.5 20,-76.5"/>
<text text-anchor="middle" x="552" y="-150.9" font-family="Helvetica,sans-Serif" font-size="22.00">Before: JiT&#45;B/2&#45;4C</text>
</g>
<g id="clust2" class="cluster">
<title>cluster_after</title>
<path fill="#eaf5ff" stroke="#78aee0" stroke-width="1.6" d="M1146,-8.5C1146,-8.5 1923,-8.5 1923,-8.5 1929,-8.5 1935,-14.5 1935,-20.5 1935,-20.5 1935,-228.5 1935,-228.5 1935,-234.5 1929,-240.5 1923,-240.5 1923,-240.5 1146,-240.5 1146,-240.5 1140,-240.5 1134,-234.5 1134,-228.5 1134,-228.5 1134,-20.5 1134,-20.5 1134,-14.5 1140,-8.5 1146,-8.5"/>
<text text-anchor="middle" x="1534.5" y="-218.9" font-family="Helvetica,sans-Serif" font-size="22.00">After: JiT&#45;Dual&#45;B/2&#45;4C&#45;896</text>
</g>
<!-- b0 -->
<g id="node1" class="node">
<title>b0</title>
<path fill="#fffdf6" stroke="#4a4a4a" stroke-width="1.4" d="M180,-126.5C180,-126.5 28,-126.5 28,-126.5 22,-126.5 16,-120.5 16,-114.5 16,-114.5 16,-102.5 16,-102.5 16,-96.5 22,-90.5 28,-90.5 28,-90.5 180,-90.5 180,-90.5 186,-90.5 192,-96.5 192,-102.5 192,-102.5 192,-114.5 192,-114.5 192,-120.5 186,-126.5 180,-126.5"/>
<text text-anchor="middle" x="104" y="-104.8" font-family="Helvetica,sans-Serif" font-size="14.00">Latent + DINO inputs</text>
</g>
<!-- b1 -->
<g id="node2" class="node">
<title>b1</title>
<path fill="#fffdf6" stroke="#4a4a4a" stroke-width="1.4" d="M422,-132.5C422,-132.5 258,-132.5 258,-132.5 252,-132.5 246,-126.5 246,-120.5 246,-120.5 246,-96.5 246,-96.5 246,-90.5 252,-84.5 258,-84.5 258,-84.5 422,-84.5 422,-84.5 428,-84.5 434,-90.5 434,-96.5 434,-96.5 434,-120.5 434,-120.5 434,-126.5 428,-132.5 422,-132.5"/>
<text text-anchor="middle" x="340" y="-112.3" font-family="Helvetica,sans-Serif" font-size="14.00">Concat into one</text>
<text text-anchor="middle" x="340" y="-97.3" font-family="Helvetica,sans-Serif" font-size="14.00">shared token sequence</text>
</g>
<!-- b0&#45;&gt;b1 -->
<g id="edge1" class="edge">
<title>b0&#45;&gt;b1</title>
<path fill="none" stroke="#5c6670" stroke-width="1.6" d="M192.21,-108.5C192.21,-108.5 237.97,-108.5 237.97,-108.5"/>
<polygon fill="#5c6670" stroke="#5c6670" stroke-width="1.6" points="237.97,-111.3 245.97,-108.5 237.97,-105.7 237.97,-111.3"/>
</g>
<!-- b2 -->
<g id="node3" class="node">
<title>b2</title>
<path fill="#fffdf6" stroke="#4a4a4a" stroke-width="1.4" d="M627,-132.5C627,-132.5 500,-132.5 500,-132.5 494,-132.5 488,-126.5 488,-120.5 488,-120.5 488,-96.5 488,-96.5 488,-90.5 494,-84.5 500,-84.5 500,-84.5 627,-84.5 627,-84.5 633,-84.5 639,-90.5 639,-96.5 639,-96.5 639,-120.5 639,-120.5 639,-126.5 633,-132.5 627,-132.5"/>
<text text-anchor="middle" x="563.5" y="-112.3" font-family="Helvetica,sans-Serif" font-size="14.00">One shared</text>
<text text-anchor="middle" x="563.5" y="-97.3" font-family="Helvetica,sans-Serif" font-size="14.00">transformer trunk</text>
</g>
<!-- b1&#45;&gt;b2 -->
<g id="edge2" class="edge">
<title>b1&#45;&gt;b2</title>
<path fill="none" stroke="#5c6670" stroke-width="1.6" d="M434.14,-108.5C434.14,-108.5 479.78,-108.5 479.78,-108.5"/>
<polygon fill="#5c6670" stroke="#5c6670" stroke-width="1.6" points="479.78,-111.3 487.78,-108.5 479.78,-105.7 479.78,-111.3"/>
</g>
<!-- b3 -->
<g id="node4" class="node">
<title>b3</title>
<path fill="#fffdf6" stroke="#4a4a4a" stroke-width="1.4" d="M837,-132.5C837,-132.5 705,-132.5 705,-132.5 699,-132.5 693,-126.5 693,-120.5 693,-120.5 693,-96.5 693,-96.5 693,-90.5 699,-84.5 705,-84.5 705,-84.5 837,-84.5 837,-84.5 843,-84.5 849,-90.5 849,-96.5 849,-96.5 849,-120.5 849,-120.5 849,-126.5 843,-132.5 837,-132.5"/>
<text text-anchor="middle" x="771" y="-112.3" font-family="Helvetica,sans-Serif" font-size="14.00">Shared context</text>
<text text-anchor="middle" x="771" y="-97.3" font-family="Helvetica,sans-Serif" font-size="14.00">inserted at block 4</text>
</g>
<!-- b2&#45;&gt;b3 -->
<g id="edge3" class="edge">
<title>b2&#45;&gt;b3</title>
<path fill="none" stroke="#5c6670" stroke-width="1.6" d="M639.29,-108.5C639.29,-108.5 684.98,-108.5 684.98,-108.5"/>
<polygon fill="#5c6670" stroke="#5c6670" stroke-width="1.6" points="684.98,-111.3 692.98,-108.5 684.98,-105.7 684.98,-111.3"/>
</g>
<!-- b4 -->
<g id="node5" class="node">
<title>b4</title>
<path fill="#fffdf6" stroke="#4a4a4a" stroke-width="1.4" d="M1076,-132.5C1076,-132.5 915,-132.5 915,-132.5 909,-132.5 903,-126.5 903,-120.5 903,-120.5 903,-96.5 903,-96.5 903,-90.5 909,-84.5 915,-84.5 915,-84.5 1076,-84.5 1076,-84.5 1082,-84.5 1088,-90.5 1088,-96.5 1088,-96.5 1088,-120.5 1088,-120.5 1088,-126.5 1082,-132.5 1076,-132.5"/>
<text text-anchor="middle" x="995.5" y="-112.3" font-family="Helvetica,sans-Serif" font-size="14.00">Split back into</text>
<text text-anchor="middle" x="995.5" y="-97.3" font-family="Helvetica,sans-Serif" font-size="14.00">latent and DINO heads</text>
</g>
<!-- b3&#45;&gt;b4 -->
<g id="edge4" class="edge">
<title>b3&#45;&gt;b4</title>
<path fill="none" stroke="#5c6670" stroke-width="1.6" d="M849.2,-108.5C849.2,-108.5 894.92,-108.5 894.92,-108.5"/>
<polygon fill="#5c6670" stroke="#5c6670" stroke-width="1.6" points="894.92,-111.3 902.92,-108.5 894.92,-105.7 894.92,-111.3"/>
</g>
<!-- ctx -->
<g id="node6" class="node">
<title>ctx</title>
<path fill="#f2fbf5" stroke="#5d8a68" stroke-width="1.4" d="M1287,-132.5C1287,-132.5 1154,-132.5 1154,-132.5 1148,-132.5 1142,-126.5 1142,-120.5 1142,-120.5 1142,-96.5 1142,-96.5 1142,-90.5 1148,-84.5 1154,-84.5 1154,-84.5 1287,-84.5 1287,-84.5 1293,-84.5 1299,-90.5 1299,-96.5 1299,-96.5 1299,-120.5 1299,-120.5 1299,-126.5 1293,-132.5 1287,-132.5"/>
<text text-anchor="middle" x="1220.5" y="-112.3" font-family="Helvetica,sans-Serif" font-size="14.00">Per&#45;stream context</text>
<text text-anchor="middle" x="1220.5" y="-97.3" font-family="Helvetica,sans-Serif" font-size="14.00">from block 0</text>
</g>
<!-- b4&#45;&gt;ctx -->
<!-- note -->
<g id="node14" class="node">
<title>note</title>
<path fill="#f2fbf5" stroke="#5d8a68" stroke-width="1.4" d="M2716,-69C2716,-69 1993,-69 1993,-69 1987,-69 1981,-63 1981,-57 1981,-57 1981,-12 1981,-12 1981,-6 1987,0 1993,0 1993,0 2716,0 2716,0 2722,0 2728,-6 2728,-12 2728,-12 2728,-57 2728,-57 2728,-63 2722,-69 2716,-69"/>
<text text-anchor="middle" x="2354.5" y="-48" font-family="Helvetica,sans-Serif" font-size="15.00">Main idea:</text>
<text text-anchor="middle" x="2354.5" y="-31" font-family="Helvetica,sans-Serif" font-size="15.00">old JiT mixes both modalities inside one trunk;</text>
<text text-anchor="middle" x="2354.5" y="-14" font-family="Helvetica,sans-Serif" font-size="15.00">new JiT keeps them separate and lets them exchange information only at selected fusion points.</text>
</g>
<!-- b4&#45;&gt;note -->
<!-- l1 -->
<g id="node9" class="node">
<title>l1</title>
<path fill="#f9fcff" stroke="#4a4a4a" stroke-width="1.4" d="M1497,-159.5C1497,-159.5 1365,-159.5 1365,-159.5 1359,-159.5 1353,-153.5 1353,-147.5 1353,-147.5 1353,-123.5 1353,-123.5 1353,-117.5 1359,-111.5 1365,-111.5 1365,-111.5 1497,-111.5 1497,-111.5 1503,-111.5 1509,-117.5 1509,-123.5 1509,-123.5 1509,-147.5 1509,-147.5 1509,-153.5 1503,-159.5 1497,-159.5"/>
<text text-anchor="middle" x="1431" y="-139.3" font-family="Helvetica,sans-Serif" font-size="14.00">Latent tower</text>
<text text-anchor="middle" x="1431" y="-124.3" font-family="Helvetica,sans-Serif" font-size="14.00">(separate weights)</text>
</g>
<!-- ctx&#45;&gt;l1 -->
<g id="edge7" class="edge">
<title>ctx&#45;&gt;l1</title>
<path fill="none" stroke="#5c6670" stroke-width="1.6" d="M1299.18,-122C1299.18,-122 1344.76,-122 1344.76,-122"/>
<polygon fill="#5c6670" stroke="#5c6670" stroke-width="1.6" points="1344.76,-124.8 1352.76,-122 1344.76,-119.2 1344.76,-124.8"/>
</g>
<!-- d1 -->
<g id="node10" class="node">
<title>d1</title>
<path fill="#f9fcff" stroke="#4a4a4a" stroke-width="1.4" d="M1497,-79.5C1497,-79.5 1365,-79.5 1365,-79.5 1359,-79.5 1353,-73.5 1353,-67.5 1353,-67.5 1353,-43.5 1353,-43.5 1353,-37.5 1359,-31.5 1365,-31.5 1365,-31.5 1497,-31.5 1497,-31.5 1503,-31.5 1509,-37.5 1509,-43.5 1509,-43.5 1509,-67.5 1509,-67.5 1509,-73.5 1503,-79.5 1497,-79.5"/>
<text text-anchor="middle" x="1431" y="-59.3" font-family="Helvetica,sans-Serif" font-size="14.00">DINO tower</text>
<text text-anchor="middle" x="1431" y="-44.3" font-family="Helvetica,sans-Serif" font-size="14.00">(separate weights)</text>
</g>
<!-- ctx&#45;&gt;d1 -->
<g id="edge8" class="edge">
<title>ctx&#45;&gt;d1</title>
<path fill="none" stroke="#5c6670" stroke-width="1.6" d="M1286,-84.27C1286,-74.73 1286,-66 1286,-66 1286,-66 1344.98,-66 1344.98,-66"/>
<polygon fill="#5c6670" stroke="#5c6670" stroke-width="1.6" points="1344.98,-68.8 1352.98,-66 1344.98,-63.2 1344.98,-68.8"/>
</g>
<!-- l0 -->
<g id="node7" class="node">
<title>l0</title>
<path fill="#f9fcff" stroke="#4a4a4a" stroke-width="1.4" d="M1264,-200.5C1264,-200.5 1177,-200.5 1177,-200.5 1171,-200.5 1165,-194.5 1165,-188.5 1165,-188.5 1165,-176.5 1165,-176.5 1165,-170.5 1171,-164.5 1177,-164.5 1177,-164.5 1264,-164.5 1264,-164.5 1270,-164.5 1276,-170.5 1276,-176.5 1276,-176.5 1276,-188.5 1276,-188.5 1276,-194.5 1270,-200.5 1264,-200.5"/>
<text text-anchor="middle" x="1220.5" y="-178.8" font-family="Helvetica,sans-Serif" font-size="14.00">Latent input</text>
</g>
<!-- l0&#45;&gt;l1 -->
<g id="edge5" class="edge">
<title>l0&#45;&gt;l1</title>
<path fill="none" stroke="#5c6670" stroke-width="1.6" d="M1221,-164.25C1221,-155.12 1221,-146 1221,-146 1221,-146 1344.8,-146 1344.8,-146"/>
<polygon fill="#5c6670" stroke="#5c6670" stroke-width="1.6" points="1344.8,-148.8 1352.8,-146 1344.8,-143.2 1344.8,-148.8"/>
</g>
<!-- d0 -->
<g id="node8" class="node">
<title>d0</title>
<path fill="#f9fcff" stroke="#4a4a4a" stroke-width="1.4" d="M1260.5,-52.5C1260.5,-52.5 1180.5,-52.5 1180.5,-52.5 1174.5,-52.5 1168.5,-46.5 1168.5,-40.5 1168.5,-40.5 1168.5,-28.5 1168.5,-28.5 1168.5,-22.5 1174.5,-16.5 1180.5,-16.5 1180.5,-16.5 1260.5,-16.5 1260.5,-16.5 1266.5,-16.5 1272.5,-22.5 1272.5,-28.5 1272.5,-28.5 1272.5,-40.5 1272.5,-40.5 1272.5,-46.5 1266.5,-52.5 1260.5,-52.5"/>
<text text-anchor="middle" x="1220.5" y="-30.8" font-family="Helvetica,sans-Serif" font-size="14.00">DINO input</text>
</g>
<!-- d0&#45;&gt;d1 -->
<g id="edge6" class="edge">
<title>d0&#45;&gt;d1</title>
<path fill="none" stroke="#5c6670" stroke-width="1.6" d="M1272.53,-42C1272.53,-42 1344.91,-42 1344.91,-42"/>
<polygon fill="#5c6670" stroke="#5c6670" stroke-width="1.6" points="1344.91,-44.8 1352.91,-42 1344.9,-39.2 1344.91,-44.8"/>
</g>
<!-- fusion -->
<g id="node11" class="node">
<title>fusion</title>
<path fill="#f2fbf5" stroke="#5d8a68" stroke-width="1.4" d="M1752,-95.5C1752,-95.5 1575,-95.5 1575,-95.5 1569,-95.5 1563,-89.5 1563,-83.5 1563,-83.5 1563,-59.5 1563,-59.5 1563,-53.5 1569,-47.5 1575,-47.5 1575,-47.5 1752,-47.5 1752,-47.5 1758,-47.5 1764,-53.5 1764,-59.5 1764,-59.5 1764,-83.5 1764,-83.5 1764,-89.5 1758,-95.5 1752,-95.5"/>
<text text-anchor="middle" x="1663.5" y="-75.3" font-family="Helvetica,sans-Serif" font-size="14.00">Bidirectional cross&#45;fusion</text>
<text text-anchor="middle" x="1663.5" y="-60.3" font-family="Helvetica,sans-Serif" font-size="14.00">only at blocks 4 and 8</text>
</g>
<!-- l1&#45;&gt;fusion -->
<g id="edge9" class="edge">
<title>l1&#45;&gt;fusion</title>
<path fill="none" stroke="#5c6670" stroke-width="1.6" d="M1431,-111.42C1431,-100.5 1431,-90 1431,-90 1431,-90 1554.87,-90 1554.87,-90"/>
<polygon fill="#5c6670" stroke="#5c6670" stroke-width="1.6" points="1554.87,-92.8 1562.87,-90 1554.87,-87.2 1554.87,-92.8"/>
</g>
<!-- d1&#45;&gt;fusion -->
<g id="edge10" class="edge">
<title>d1&#45;&gt;fusion</title>
<path fill="none" stroke="#5c6670" stroke-width="1.6" d="M1509.07,-63.5C1509.07,-63.5 1554.93,-63.5 1554.93,-63.5"/>
<polygon fill="#5c6670" stroke="#5c6670" stroke-width="1.6" points="1554.93,-66.3 1562.93,-63.5 1554.93,-60.7 1554.93,-66.3"/>
</g>
<!-- l2 -->
<g id="node12" class="node">
<title>l2</title>
<path fill="#f9fcff" stroke="#4a4a4a" stroke-width="1.4" d="M1915,-52.5C1915,-52.5 1830,-52.5 1830,-52.5 1824,-52.5 1818,-46.5 1818,-40.5 1818,-40.5 1818,-28.5 1818,-28.5 1818,-22.5 1824,-16.5 1830,-16.5 1830,-16.5 1915,-16.5 1915,-16.5 1921,-16.5 1927,-22.5 1927,-28.5 1927,-28.5 1927,-40.5 1927,-40.5 1927,-46.5 1921,-52.5 1915,-52.5"/>
<text text-anchor="middle" x="1872.5" y="-30.8" font-family="Helvetica,sans-Serif" font-size="14.00">Latent head</text>
</g>
<!-- fusion&#45;&gt;l2 -->
<g id="edge11" class="edge">
<title>fusion&#45;&gt;l2</title>
<path fill="none" stroke="#5c6670" stroke-width="1.6" d="M1764.26,-58C1810.84,-58 1856,-58 1856,-58 1856,-58 1856,-57.45 1856,-57.45"/>
<polygon fill="#5c6670" stroke="#5c6670" stroke-width="1.6" points="1858.8,-60.55 1856,-52.55 1853.2,-60.55 1858.8,-60.55"/>
</g>
<!-- d2 -->
<g id="node13" class="node">
<title>d2</title>
<path fill="#f9fcff" stroke="#4a4a4a" stroke-width="1.4" d="M1911.5,-120.5C1911.5,-120.5 1833.5,-120.5 1833.5,-120.5 1827.5,-120.5 1821.5,-114.5 1821.5,-108.5 1821.5,-108.5 1821.5,-96.5 1821.5,-96.5 1821.5,-90.5 1827.5,-84.5 1833.5,-84.5 1833.5,-84.5 1911.5,-84.5 1911.5,-84.5 1917.5,-84.5 1923.5,-90.5 1923.5,-96.5 1923.5,-96.5 1923.5,-108.5 1923.5,-108.5 1923.5,-114.5 1917.5,-120.5 1911.5,-120.5"/>
<text text-anchor="middle" x="1872.5" y="-98.8" font-family="Helvetica,sans-Serif" font-size="14.00">DINO head</text>
</g>
<!-- fusion&#45;&gt;d2 -->
<g id="edge12" class="edge">
<title>fusion&#45;&gt;d2</title>
<path fill="none" stroke="#5c6670" stroke-width="1.6" d="M1764.02,-90C1764.02,-90 1813.33,-90 1813.33,-90"/>
<polygon fill="#5c6670" stroke="#5c6670" stroke-width="1.6" points="1813.33,-92.8 1821.33,-90 1813.33,-87.2 1813.33,-92.8"/>
</g>
<!-- d2&#45;&gt;note -->
</g>
</svg>
